<svg width="200" height="200" viewBox="0 0 200 200" xmlns="http://www.w3.org/2000/svg">
  <!-- Define gradients -->
  <defs>
    <linearGradient id="mainGradient" x1="0%" y1="0%" x2="100%" y2="100%">
      <stop offset="0%" stop-color="#3b82f6" />
      <stop offset="100%" stop-color="#8b5cf6" />
    </linearGradient>
    <linearGradient id="secondaryGradient" x1="100%" y1="0%" x2="0%" y2="100%">
      <stop offset="0%" stop-color="#60a5fa" />
      <stop offset="100%" stop-color="#a78bfa" />
    </linearGradient>
    <filter id="shadow" x="-10%" y="-10%" width="120%" height="120%">
      <feGaussianBlur stdDeviation="2" />
    </filter>
  </defs>
  
  <!-- Background hexagon (silicon crystal structure) -->
  <polygon 
    points="100,30 165,65 165,135 100,170 35,135 35,65" 
    fill="url(#mainGradient)"
    stroke="#ffffff"
    stroke-width="2"
    filter="url(#shadow)"
  />
  
  <!-- Inner hexagon (silicon crystal structure) -->
  <polygon 
    points="100,50 145,75 145,125 100,150 55,125 55,75" 
    fill="url(#secondaryGradient)"
    stroke="#ffffff"
    stroke-width="1.5"
  />
  
  <!-- Central circle (representing AI) -->
  <circle 
    cx="100" 
    cy="100" 
    r="25" 
    fill="#ffffff" 
    stroke="#3b82f6"
    stroke-width="2"
  />
  
  <!-- Neural network pattern (representing AI) -->
  <circle cx="100" cy="100" r="3" fill="#3b82f6" />
  <circle cx="85" cy="85" r="2" fill="#3b82f6" />
  <circle cx="115" cy="85" r="2" fill="#3b82f6" />
  <circle cx="85" cy="115" r="2" fill="#3b82f6" />
  <circle cx="115" cy="115" r="2" fill="#3b82f6" />
  
  <line x1="100" y1="100" x2="85" y2="85" stroke="#3b82f6" stroke-width="1.5" />
  <line x1="100" y1="100" x2="115" y2="85" stroke="#3b82f6" stroke-width="1.5" />
  <line x1="100" y1="100" x2="85" y2="115" stroke="#3b82f6" stroke-width="1.5" />
  <line x1="100" y1="100" x2="115" y2="115" stroke="#3b82f6" stroke-width="1.5" />
</svg> 